<?xml version="1.0" encoding="UTF-8"?>
<svg id="Layer_2" data-name="Layer 2" xmlns="http://www.w3.org/2000/svg" viewBox="0 0 108.89 107.29">
  <defs>
    <style>
      .cls-1 {
        fill: #8b5cf6;
        stroke-width: 0px;
      }
    </style>
  </defs>
  <g id="Layer_1-2" data-name="Layer 1">
    <path class="cls-1" d="M108.25,39.82c-1.92-8.4-7.55-14.27-12.58-13.12-3.97.91-28.09,16.39-38.04,22.86,8.51-8.26,28.98-28.33,30.75-32,2.24-4.65-2.24-11.44-9.99-15.18-7.76-3.73-15.86-2.99-18.1,1.65-1.77,3.68-4.7,32.19-5.85,43.99-1.15-11.8-4.08-40.32-5.85-43.99-2.24-4.64-10.34-5.38-18.1-1.65-7.76,3.73-12.23,10.53-9.99,15.18,1.77,3.68,22.24,23.74,30.75,32-9.95-6.46-34.07-21.95-38.04-22.85-5.03-1.15-10.66,4.73-12.58,13.12-1.92,8.4.61,16.13,5.64,17.28,3.97.91,32.42-2.58,44.19-4.09-11.25,3.75-38.4,12.95-41.59,15.49-4.03,3.22-2.95,11.28,2.42,18.01,5.37,6.73,12.99,9.58,17.02,6.36,3.19-2.54,18.2-26.96,24.35-37.09-4.08,11.13-13.82,38.09-13.82,42.17,0,5.16,6.98,9.34,15.59,9.34s15.59-4.18,15.59-9.34c0-4.08-9.73-31.03-13.82-42.17,6.16,10.14,21.17,34.55,24.35,37.09,4.03,3.22,11.65.36,17.02-6.36s6.45-14.79,2.42-18.01c-3.19-2.54-30.33-11.74-41.59-15.49,11.77,1.5,40.21,4.99,44.19,4.09,5.05-1.15,7.57-8.89,5.65-17.28Z"/>
  </g>
</svg>